<svg data-name="정부24 BI" xmlns="http://www.w3.org/2000/svg" width="130" height="36" viewBox="0 0 130 36">
    <path style="fill:none;opacity:.5" d="M0 0h130v36H0z"/>
    <path data-name="패스 102403" d="M201.511 44.379v-2.45h13.215v2.45H209.1l5.858 7.149-1.987 1.652-4.751-5.911-4.672 6.3-2.065-1.654 5.86-7.536zm18.3 15a5.079 5.079 0 0 1-.478 2.181 6.094 6.094 0 0 1-1.278 1.8 5.97 5.97 0 0 1-1.9 1.226 6.225 6.225 0 0 1-4.66 0 5.971 5.971 0 0 1-1.91-1.226 6.052 6.052 0 0 1-1.276-1.8 5.213 5.213 0 0 1 0-4.361 6.026 6.026 0 0 1 1.276-1.8 5.956 5.956 0 0 1 1.91-1.226 6.233 6.233 0 0 1 4.66 0 5.955 5.955 0 0 1 1.9 1.226 6.067 6.067 0 0 1 1.278 1.8 5.078 5.078 0 0 1 .478 2.18M217 59.35a3.012 3.012 0 0 0-.943-2.22 3.107 3.107 0 0 0-2.257-.93 3.149 3.149 0 0 0 0 6.3 3.13 3.13 0 0 0 2.259-.917A3 3 0 0 0 217 59.35m1.908-5.885v-4.982h-4.284V46h4.284v-4.744h2.867v12.209z" transform="translate(-154.617 -35.029)" style="fill:#464749;stroke:#464749;stroke-width:.4px"/>
    <path data-name="패스 102404" d="M282.564 56.754h21.163v2.529h-9.16v5.937H291.7v-5.937h-9.138zm4.515-11.254h12.106v-2.916h2.837v11.074h-17.754V42.584h2.812zm12.106 2.477H287.08v3.175h12.106z" transform="translate(-212.015 -35.97)" style="fill:#464749;stroke:#464749;stroke-width:.4px"/>
    <path data-name="패스 102405" d="M382.748 64.017h-14.48v-3.233l8.264-7.694c.124-.119.268-.252.417-.395 1.218-1.147 3.061-2.88 3.061-4.984 0-2.175-1.135-4.717-4.331-4.717-2.549 0-4.262 1.63-4.583 4.358l-.076.553-2.746-.406.088-.578c.933-5.815 5.361-6.441 7.221-6.441 4.352 0 7.163 2.9 7.163 7.39 0 2.87-1.922 4.762-3.467 6.281l-.259.254-7.61 7.1h11.336v2.514z" transform="translate(-272.684 -34.48)" style="fill:#464749;stroke:#464749;stroke-width:.4px"/>
    <path data-name="패스 102406" d="M439.238 57.93h-2.562V41.572h-2.427l-10.622 15.975v2.9h10.467v4.343h2.582v-4.345h3.014V57.93zm-12.8 0 7.656-11.73v11.73z" transform="translate(-311.874 -35.253)" style="fill:#464749;stroke:#464749;stroke-width:.4px"/>
    <g>
        <path data-name="패스 102401" d="M27.786 17.18a6.488 6.488 0 0 0-9.23 1.937 6.5 6.5 0 0 1-11.742-1.785l-.018-.069-.023-.082a8.317 8.317 0 0 1-.335-2.581c0-5.822 5.972-12.3 14.575-12.3a16.411 16.411 0 0 1 15.152 10.43l-.067-.2A18.551 18.551 0 0 0 0 18.551c0 9.158 6.6 17 15.762 17A14.9 14.9 0 0 0 30.234 25.8a7.15 7.15 0 0 0-2.448-8.624" style="fill:#002c52" transform="translate(1)"/>
        <path data-name="패스 102402" d="M58.13 20.883a16.362 16.362 0 0 0-15.266-10.8c-8.6 0-14.575 6.482-14.575 12.3a8.355 8.355 0 0 0 .331 2.581 5.5 5.5 0 0 1-.17-1.324c0-6.064 6.069-10.265 12.309-10.265a15.3 15.3 0 0 1 15.3 15.3 16.865 16.865 0 0 1-9.349 15.109 18.559 18.559 0 0 0 12.237-17.441 18.359 18.359 0 0 0-.817-5.46" transform="translate(-20.85 -7.792)" style="fill:#e5002b"/>
    </g>
</svg>
